<?xml version="1.0"?>
<svg xmlns="http://www.w3.org/2000/svg" xmlns:xlink="http://www.w3.org/1999/xlink" version="1.1" id="Capa_1" x="0px" y="0px" viewBox="0 0 512 512" style="enable-background:new 0 0 512 512;" xml:space="preserve" width="512px" height="512px"><g transform="matrix(6.12323e-17 -1 1 6.12323e-17 0 512)"><polygon style="fill:#FEDA9B" points="175.337,208.605 206.618,204.05 255.969,103.987 305.374,204.024 336.709,208.569   335.915,203.949 415.789,126.05 305.374,110.036 255.969,9.999 206.618,110.062 96.211,126.135 176.126,203.991 " data-original="#FEDA9B" class=""/><polygon style="fill:#FFC66C" points="175.326,302.656 206.618,298.101 255.969,198.038 305.374,298.075 336.72,302.621   335.915,297.938 415.789,220.038 305.374,204.024 255.969,103.987 206.618,204.05 96.211,220.123 176.126,297.98 " data-original="#FFC66C" class=""/><polygon style="fill:#FFB954" points="255.969,198.038 305.373,298.075 415.789,314.089 335.915,391.989 354.805,501.949   256.036,450.056 157.295,502.001 176.126,392.031 96.211,314.174 206.618,298.101 " data-original="#FFB954" class=""/><path d="M157.296,512c-2.073,0-4.134-0.644-5.876-1.908c-3.08-2.237-4.622-6.027-3.98-9.779l17.944-104.788l-76.15-74.189  c-2.727-2.656-3.708-6.629-2.533-10.249c1.176-3.62,4.304-6.258,8.07-6.807l105.204-15.316l47.026-95.348  c1.684-3.414,5.159-5.575,8.965-5.576c0,0,0.002,0,0.003,0c3.806,0,7.28,2.16,8.965,5.571l47.077,95.323l105.213,15.259  c3.767,0.546,6.896,3.184,8.073,6.803c1.177,3.62,0.197,7.593-2.527,10.251l-76.11,74.229l17.999,104.78  c0.645,3.751-0.896,7.542-3.976,9.781c-3.08,2.239-7.16,2.534-10.53,0.764l-65.946-34.648c-4.888-2.569-6.769-8.614-4.201-13.502  c2.569-4.888,8.612-6.769,13.502-4.201l48.011,25.225l-15.459-89.993c-0.558-3.244,0.518-6.553,2.873-8.851l65.37-63.753  l-90.366-13.106c-3.257-0.473-6.072-2.518-7.529-5.467l-40.433-81.871l-40.39,81.893c-1.456,2.952-4.27,4.997-7.527,5.471  l-90.358,13.154l65.404,63.719c2.357,2.297,3.434,5.605,2.878,8.85l-15.412,90.001l47.468-24.972  c4.886-2.571,10.935-0.694,13.504,4.194c2.572,4.887,0.694,10.934-4.193,13.504l-65.398,34.404  C160.486,511.62,158.889,512,157.296,512z" data-original="#000000" class="active-path" style="fill:#000000" data-old_color="#000000"/><path d="M256.253,460.175c-1.575,0-3.173-0.373-4.661-1.16l-0.225-0.119c-4.883-2.58-6.75-8.629-4.171-13.511  c2.579-4.882,8.631-6.749,13.511-4.17l0.225,0.119c4.883,2.58,6.75,8.629,4.17,13.511  C263.31,458.238,259.84,460.175,256.253,460.175z" data-original="#000000" class="active-path" style="fill:#000000" data-old_color="#000000"/><path d="M372.672,178.1c-2.602,0-5.199-1.008-7.159-3.018c-3.855-3.954-3.776-10.284,0.177-14.139l28.615-27.907l-90.366-13.106  c-3.257-0.473-6.072-2.518-7.529-5.467l-40.433-81.872l-40.39,81.893c-1.456,2.952-4.27,4.997-7.527,5.471l-90.358,13.154  l27.373,26.667c3.955,3.854,4.038,10.184,0.185,14.139c-3.854,3.956-10.185,4.039-14.14,0.185l-41.884-40.805  c-2.727-2.656-3.708-6.629-2.533-10.249c1.176-3.621,4.304-6.259,8.07-6.807l105.204-15.315l47.025-95.348  c1.684-3.414,5.159-5.575,8.965-5.576c0,0,0.002,0,0.003,0c3.806,0,7.28,2.16,8.965,5.571l47.077,95.323l105.213,15.26  c3.767,0.546,6.896,3.184,8.073,6.803c1.177,3.62,0.197,7.593-2.527,10.251l-43.118,42.052  C377.708,177.156,375.188,178.1,372.672,178.1z" data-original="#000000" class="active-path" style="fill:#000000" data-old_color="#000000"/><path d="M142.38,275.134c-2.516,0-5.032-0.943-6.977-2.837l-46.169-44.98c-2.727-2.656-3.708-6.629-2.533-10.249  c1.176-3.62,4.304-6.258,8.07-6.807l105.205-15.317l47.025-95.348c1.684-3.414,5.159-5.575,8.965-5.576c0,0,0.002,0,0.003,0  c3.806,0,7.28,2.16,8.965,5.571l47.077,95.323l105.213,15.26c3.767,0.546,6.896,3.184,8.073,6.803  c1.177,3.62,0.197,7.593-2.527,10.251l-41.091,40.075c-3.955,3.856-10.285,3.777-14.14-0.177  c-3.855-3.954-3.776-10.284,0.177-14.139l26.587-25.929l-90.365-13.106c-3.257-0.473-6.072-2.518-7.529-5.467l-40.433-81.872  l-40.39,81.893c-1.456,2.952-4.27,4.997-7.527,5.471L117.7,227.131l31.658,30.842c3.955,3.854,4.038,10.184,0.185,14.139  C147.583,274.123,144.982,275.134,142.38,275.134z" data-original="#000000" class="active-path" style="fill:#000000" data-old_color="#000000"/></g> </svg>
